<?xml version="1.0" encoding="UTF-8"?>
<!DOCTYPE svg
PUBLIC "-//W3C//DTD SVG 1.1//EN"
       "http://www.w3.org/Graphics/SVG/1.1/DTD/svg11.dtd">
<svg viewBox="405 40 1490 469" width="1085px" height="429px" xmlns="http://www.w3.org/2000/svg" version="1.1">
   <line x1="1389" y1="331" x2="1379" y2="331" style="stroke:#0bf;stroke-width:1;"/>
   <line x1="1372" y1="86" x2="1382" y2="86" style="stroke:#0bf;stroke-width:1;"/>
   <line x1="1379" y1="331" x2="1372" y2="86" style="stroke:#0bf;stroke-width:1;"/>
   <line x1="1381.5" y1="331" x2="1385.0355339059" y2="334.53553390593" style="stroke:#0bf;stroke-width:2;"/>
   <line x1="1381.5" y1="331" x2="1385.0355339059" y2="327.46446609407" style="stroke:#0bf;stroke-width:2;"/>
   <line x1="1377" y1="86" x2="1373.4644660941" y2="89.535533905933" style="stroke:#0bf;stroke-width:2;"/>
   <line x1="1377" y1="86" x2="1373.4644660941" y2="82.464466094067" style="stroke:#0bf;stroke-width:2;"/>
   <line x1="1389" y1="311" x2="1379" y2="311" style="stroke:#0b0;stroke-width:1;"/>
   <line x1="1283" y1="300" x2="1273" y2="300" style="stroke:#0b0;stroke-width:1;"/>
   <line x1="1379" y1="311" x2="1283" y2="300" style="stroke:#0b0;stroke-width:1;"/>
   <line x1="1381.5" y1="311" x2="1385.0355339059" y2="314.53553390593" style="stroke:#0b0;stroke-width:2;"/>
   <line x1="1381.5" y1="311" x2="1385.0355339059" y2="307.46446609407" style="stroke:#0b0;stroke-width:2;"/>
   <line x1="1278" y1="300" x2="1281.5355339059" y2="303.53553390593" style="stroke:#0b0;stroke-width:2;"/>
   <line x1="1278" y1="300" x2="1281.5355339059" y2="296.46446609407" style="stroke:#0b0;stroke-width:2;"/>
   <line x1="420" y1="328" x2="410" y2="328" style="stroke:#c00;stroke-width:1;"/>
   <line x1="415" y1="85" x2="425" y2="85" style="stroke:#c00;stroke-width:1;"/>
   <line x1="410" y1="328" x2="415" y2="85" style="stroke:#c00;stroke-width:1;"/>
   <line x1="412.5" y1="328" x2="416.03553390593" y2="331.53553390593" style="stroke:#c00;stroke-width:2;"/>
   <line x1="412.5" y1="328" x2="416.03553390593" y2="324.46446609407" style="stroke:#c00;stroke-width:2;"/>
   <line x1="420" y1="85" x2="416.46446609407" y2="88.535533905933" style="stroke:#c00;stroke-width:2;"/>
   <line x1="420" y1="85" x2="416.46446609407" y2="81.464466094067" style="stroke:#c00;stroke-width:2;"/>
   <line x1="526" y1="348" x2="536" y2="348" style="stroke:#c00;stroke-width:1;"/>
   <line x1="696" y1="264" x2="706" y2="264" style="stroke:#c00;stroke-width:1;"/>
   <line x1="536" y1="348" x2="696" y2="264" style="stroke:#c00;stroke-width:1;"/>
   <line x1="533.5" y1="348" x2="529.96446609407" y2="351.53553390593" style="stroke:#c00;stroke-width:2;"/>
   <line x1="533.5" y1="348" x2="529.96446609407" y2="344.46446609407" style="stroke:#c00;stroke-width:2;"/>
   <line x1="701" y1="264" x2="697.46446609407" y2="267.53553390593" style="stroke:#c00;stroke-width:2;"/>
   <line x1="701" y1="264" x2="697.46446609407" y2="260.46446609407" style="stroke:#c00;stroke-width:2;"/>
   <line x1="1062" y1="326" x2="1072" y2="326" style="stroke:#cb0;stroke-width:1;"/>
   <line x1="1177" y1="300" x2="1187" y2="300" style="stroke:#cb0;stroke-width:1;"/>
   <line x1="1072" y1="326" x2="1177" y2="300" style="stroke:#cb0;stroke-width:1;"/>
   <line x1="1069.5" y1="326" x2="1065.9644660941" y2="329.53553390593" style="stroke:#cb0;stroke-width:2;"/>
   <line x1="1069.5" y1="326" x2="1065.9644660941" y2="322.46446609407" style="stroke:#cb0;stroke-width:2;"/>
   <line x1="1182" y1="300" x2="1178.4644660941" y2="303.53553390593" style="stroke:#cb0;stroke-width:2;"/>
   <line x1="1182" y1="300" x2="1178.4644660941" y2="296.46446609407" style="stroke:#cb0;stroke-width:2;"/>
   <line x1="976" y1="346" x2="966" y2="346" style="stroke:#bbb;stroke-width:1;"/>
   <line x1="802" y1="264" x2="792" y2="264" style="stroke:#bbb;stroke-width:1;"/>
   <line x1="966" y1="346" x2="802" y2="264" style="stroke:#bbb;stroke-width:1;"/>
   <line x1="968.5" y1="346" x2="972.03553390593" y2="349.53553390593" style="stroke:#bbb;stroke-width:2;"/>
   <line x1="968.5" y1="346" x2="972.03553390593" y2="342.46446609407" style="stroke:#bbb;stroke-width:2;"/>
   <line x1="797" y1="264" x2="800.53553390593" y2="267.53553390593" style="stroke:#bbb;stroke-width:2;"/>
   <line x1="797" y1="264" x2="800.53553390593" y2="260.46446609407" style="stroke:#bbb;stroke-width:2;"/>
   <rect width="86" height="20" x="425" y="55" style="fill:#007;stroke:black;"/>
   <text width="86" height="20" x="430" y="69" style="fill:#fff;" font-family="Arial" font-size="16px"> companies</text>
   <rect width="86" height="20" x="425" y="75" style="fill:#aea;stroke:black;"/>
   <text width="86" height="20" x="430" y="89" style="fill:black;" font-family="Arial" font-size="16px">id</text>
   <rect width="86" height="20" x="425" y="95" style="fill:none;stroke:black;"/>
   <text width="86" height="20" x="430" y="109" style="fill:black;" font-family="Arial" font-size="16px">nit</text>
   <rect width="86" height="20" x="425" y="115" style="fill:none;stroke:black;"/>
   <text width="86" height="20" x="430" y="129" style="fill:black;" font-family="Arial" font-size="16px">nombre</text>
   <rect width="86" height="20" x="425" y="135" style="fill:none;stroke:black;"/>
   <text width="86" height="20" x="430" y="149" style="fill:black;" font-family="Arial" font-size="16px">direccion</text>
   <rect width="86" height="20" x="425" y="155" style="fill:none;stroke:black;"/>
   <text width="86" height="20" x="430" y="169" style="fill:black;" font-family="Arial" font-size="16px">deleted_at</text>
   <rect width="86" height="20" x="425" y="175" style="fill:none;stroke:black;"/>
   <text width="86" height="20" x="430" y="189" style="fill:black;" font-family="Arial" font-size="16px">created_at</text>
   <rect width="86" height="20" x="425" y="195" style="fill:none;stroke:black;"/>
   <text width="86" height="20" x="430" y="209" style="fill:black;" font-family="Arial" font-size="16px">updated_at</text>
   <rect width="83" height="20" x="766" y="80" style="fill:#007;stroke:black;"/>
   <text width="83" height="20" x="771" y="94" style="fill:#fff;" font-family="Arial" font-size="16px"> migrations</text>
   <rect width="83" height="20" x="766" y="100" style="fill:#aea;stroke:black;"/>
   <text width="83" height="20" x="771" y="114" style="fill:black;" font-family="Arial" font-size="16px">id</text>
   <rect width="83" height="20" x="766" y="120" style="fill:none;stroke:black;"/>
   <text width="83" height="20" x="771" y="134" style="fill:black;" font-family="Arial" font-size="16px">migration</text>
   <rect width="83" height="20" x="766" y="140" style="fill:none;stroke:black;"/>
   <text width="83" height="20" x="771" y="154" style="fill:black;" font-family="Arial" font-size="16px">batch</text>
   <rect width="86" height="20" x="1389" y="261" style="fill:#007;stroke:black;"/>
   <text width="86" height="20" x="1394" y="275" style="fill:#fff;" font-family="Arial" font-size="16px"> model_role</text>
   <rect width="86" height="20" x="1389" y="281" style="fill:#aea;stroke:black;"/>
   <text width="86" height="20" x="1394" y="295" style="fill:black;" font-family="Arial" font-size="16px">id</text>
   <rect width="86" height="20" x="1389" y="301" style="fill:none;stroke:black;"/>
   <text width="86" height="20" x="1394" y="315" style="fill:black;" font-family="Arial" font-size="16px">role_id</text>
   <rect width="86" height="20" x="1389" y="321" style="fill:none;stroke:black;"/>
   <text width="86" height="20" x="1394" y="335" style="fill:black;" font-family="Arial" font-size="16px">module_id</text>
   <rect width="86" height="20" x="1389" y="341" style="fill:none;stroke:black;"/>
   <text width="86" height="20" x="1394" y="355" style="fill:black;" font-family="Arial" font-size="16px">created_at</text>
   <rect width="86" height="20" x="1389" y="361" style="fill:none;stroke:black;"/>
   <text width="86" height="20" x="1394" y="375" style="fill:black;" font-family="Arial" font-size="16px">updated_at</text>
   <rect width="86" height="20" x="1382" y="56" style="fill:#007;stroke:black;"/>
   <text width="86" height="20" x="1387" y="70" style="fill:#fff;" font-family="Arial" font-size="16px"> modules</text>
   <rect width="86" height="20" x="1382" y="76" style="fill:#aea;stroke:black;"/>
   <text width="86" height="20" x="1387" y="90" style="fill:black;" font-family="Arial" font-size="16px">id</text>
   <rect width="86" height="20" x="1382" y="96" style="fill:none;stroke:black;"/>
   <text width="86" height="20" x="1387" y="110" style="fill:black;" font-family="Arial" font-size="16px">nombre</text>
   <rect width="86" height="20" x="1382" y="116" style="fill:none;stroke:black;"/>
   <text width="86" height="20" x="1387" y="130" style="fill:black;" font-family="Arial" font-size="16px">ruta</text>
   <rect width="86" height="20" x="1382" y="136" style="fill:none;stroke:black;"/>
   <text width="86" height="20" x="1387" y="150" style="fill:black;" font-family="Arial" font-size="16px">created_at</text>
   <rect width="86" height="20" x="1382" y="156" style="fill:none;stroke:black;"/>
   <text width="86" height="20" x="1387" y="170" style="fill:black;" font-family="Arial" font-size="16px">updated_at</text>
   <rect width="86" height="20" x="1382" y="176" style="fill:none;stroke:black;"/>
   <text width="86" height="20" x="1387" y="190" style="fill:black;" font-family="Arial" font-size="16px">deleted_at</text>
   <rect width="123" height="20" x="1076" y="72" style="fill:#007;stroke:black;"/>
   <text width="123" height="20" x="1081" y="86" style="fill:#fff;" font-family="Arial" font-size="16px"> password_resets</text>
   <rect width="123" height="20" x="1076" y="92" style="fill:none;stroke:black;"/>
   <text width="123" height="20" x="1081" y="106" style="fill:black;" font-family="Arial" font-size="16px">email</text>
   <rect width="123" height="20" x="1076" y="112" style="fill:none;stroke:black;"/>
   <text width="123" height="20" x="1081" y="126" style="fill:black;" font-family="Arial" font-size="16px">token</text>
   <rect width="123" height="20" x="1076" y="132" style="fill:none;stroke:black;"/>
   <text width="123" height="20" x="1081" y="146" style="fill:black;" font-family="Arial" font-size="16px">created_at</text>
   <rect width="86" height="20" x="1187" y="270" style="fill:#007;stroke:black;"/>
   <text width="86" height="20" x="1192" y="284" style="fill:#fff;" font-family="Arial" font-size="16px"> roles</text>
   <rect width="86" height="20" x="1187" y="290" style="fill:#aea;stroke:black;"/>
   <text width="86" height="20" x="1192" y="304" style="fill:black;" font-family="Arial" font-size="16px">id</text>
   <rect width="86" height="20" x="1187" y="310" style="fill:none;stroke:black;"/>
   <text width="86" height="20" x="1192" y="324" style="fill:black;" font-family="Arial" font-size="16px">nombre</text>
   <rect width="86" height="20" x="1187" y="330" style="fill:none;stroke:black;"/>
   <text width="86" height="20" x="1192" y="344" style="fill:black;" font-family="Arial" font-size="16px">created_at</text>
   <rect width="86" height="20" x="1187" y="350" style="fill:none;stroke:black;"/>
   <text width="86" height="20" x="1192" y="364" style="fill:black;" font-family="Arial" font-size="16px">updated_at</text>
   <rect width="86" height="20" x="1187" y="370" style="fill:none;stroke:black;"/>
   <text width="86" height="20" x="1192" y="384" style="fill:black;" font-family="Arial" font-size="16px">deleted_at</text>
   <rect width="86" height="20" x="706" y="234" style="fill:#007;stroke:black;"/>
   <text width="86" height="20" x="711" y="248" style="fill:#fff;" font-family="Arial" font-size="16px"> users</text>
   <rect width="86" height="20" x="706" y="254" style="fill:#aea;stroke:black;"/>
   <text width="86" height="20" x="711" y="268" style="fill:black;" font-family="Arial" font-size="16px">id</text>
   <rect width="86" height="20" x="706" y="274" style="fill:none;stroke:black;"/>
   <text width="86" height="20" x="711" y="288" style="fill:black;" font-family="Arial" font-size="16px">cedula</text>
   <rect width="86" height="20" x="706" y="294" style="fill:none;stroke:black;"/>
   <text width="86" height="20" x="711" y="308" style="fill:black;" font-family="Arial" font-size="16px">nombre</text>
   <rect width="86" height="20" x="706" y="314" style="fill:none;stroke:black;"/>
   <text width="86" height="20" x="711" y="328" style="fill:black;" font-family="Arial" font-size="16px">correo</text>
   <rect width="86" height="20" x="706" y="334" style="fill:none;stroke:black;"/>
   <text width="86" height="20" x="711" y="348" style="fill:black;" font-family="Arial" font-size="16px">telefono</text>
   <rect width="86" height="20" x="706" y="354" style="fill:none;stroke:black;"/>
   <text width="86" height="20" x="711" y="368" style="fill:black;" font-family="Arial" font-size="16px">password</text>
   <rect width="86" height="20" x="706" y="374" style="fill:none;stroke:black;"/>
   <text width="86" height="20" x="711" y="388" style="fill:black;" font-family="Arial" font-size="16px">created_at</text>
   <rect width="86" height="20" x="706" y="394" style="fill:none;stroke:black;"/>
   <text width="86" height="20" x="711" y="408" style="fill:black;" font-family="Arial" font-size="16px">updated_at</text>
   <rect width="86" height="20" x="706" y="414" style="fill:none;stroke:black;"/>
   <text width="86" height="20" x="711" y="428" style="fill:black;" font-family="Arial" font-size="16px">deleted_at</text>
   <rect width="86" height="20" x="706" y="434" style="fill:none;stroke:black;"/>
   <text width="86" height="20" x="711" y="448" style="fill:black;" font-family="Arial" font-size="16px">status</text>
   <rect width="106" height="20" x="420" y="278" style="fill:#007;stroke:black;"/>
   <text width="106" height="20" x="425" y="292" style="fill:#fff;" font-family="Arial" font-size="16px"> user_company</text>
   <rect width="106" height="20" x="420" y="298" style="fill:#aea;stroke:black;"/>
   <text width="106" height="20" x="425" y="312" style="fill:black;" font-family="Arial" font-size="16px">id</text>
   <rect width="106" height="20" x="420" y="318" style="fill:none;stroke:black;"/>
   <text width="106" height="20" x="425" y="332" style="fill:black;" font-family="Arial" font-size="16px">company_id</text>
   <rect width="106" height="20" x="420" y="338" style="fill:none;stroke:black;"/>
   <text width="106" height="20" x="425" y="352" style="fill:black;" font-family="Arial" font-size="16px">user_id</text>
   <rect width="106" height="20" x="420" y="358" style="fill:none;stroke:black;"/>
   <text width="106" height="20" x="425" y="372" style="fill:black;" font-family="Arial" font-size="16px">created_at</text>
   <rect width="106" height="20" x="420" y="378" style="fill:none;stroke:black;"/>
   <text width="106" height="20" x="425" y="392" style="fill:black;" font-family="Arial" font-size="16px">updated_at</text>
   <rect width="86" height="20" x="976" y="276" style="fill:#007;stroke:black;"/>
   <text width="86" height="20" x="981" y="290" style="fill:#fff;" font-family="Arial" font-size="16px"> user_role</text>
   <rect width="86" height="20" x="976" y="296" style="fill:#aea;stroke:black;"/>
   <text width="86" height="20" x="981" y="310" style="fill:black;" font-family="Arial" font-size="16px">id</text>
   <rect width="86" height="20" x="976" y="316" style="fill:none;stroke:black;"/>
   <text width="86" height="20" x="981" y="330" style="fill:black;" font-family="Arial" font-size="16px">role_id</text>
   <rect width="86" height="20" x="976" y="336" style="fill:none;stroke:black;"/>
   <text width="86" height="20" x="981" y="350" style="fill:black;" font-family="Arial" font-size="16px">user_id</text>
   <rect width="86" height="20" x="976" y="356" style="fill:none;stroke:black;"/>
   <text width="86" height="20" x="981" y="370" style="fill:black;" font-family="Arial" font-size="16px">created_at</text>
   <rect width="86" height="20" x="976" y="376" style="fill:none;stroke:black;"/>
   <text width="86" height="20" x="981" y="390" style="fill:black;" font-family="Arial" font-size="16px">updated_at</text>
</svg>
